<?xml version="1.0" encoding="UTF-8" standalone="no"?>
<svg
   xmlns:dc="http://purl.org/dc/elements/1.1/"
   xmlns:cc="http://creativecommons.org/ns#"
   xmlns:rdf="http://www.w3.org/1999/02/22-rdf-syntax-ns#"
   xmlns:svg="http://www.w3.org/2000/svg"
   xmlns="http://www.w3.org/2000/svg"
   xmlns:xlink="http://www.w3.org/1999/xlink"
   xmlns:sodipodi="http://sodipodi.sourceforge.net/DTD/sodipodi-0.dtd"
   xmlns:inkscape="http://www.inkscape.org/namespaces/inkscape"
   width="175"
   height="175"
   viewBox="0 0 175 175"
   overflow="visible"
   enable-background="new 0 0 174 177"
   xml:space="preserve"
   id="svg9513"
   sodipodi:version="0.32"
   inkscape:version="0.48.0 r9654"
   sodipodi:docname="Pictogram_pi.svg"
   inkscape:output_extension="org.inkscape.output.svg.inkscape"
   version="1.1"
   style="overflow:visible"><metadata
   id="metadata9533"><rdf:RDF><cc:Work
       rdf:about=""><dc:format>image/svg+xml</dc:format><dc:type
         rdf:resource="http://purl.org/dc/dcmitype/StillImage" /><dc:title /></cc:Work></rdf:RDF></metadata><defs
   id="defs9531"><linearGradient
     id="linearGradient3802"><stop
       style="stop-color:#ff6600;stop-opacity:1;"
       offset="0"
       id="stop3804" /><stop
       style="stop-color:#ffcdac;stop-opacity:1;"
       offset="1"
       id="stop3806" /></linearGradient><linearGradient
     id="linearGradient8409"><stop
       style="stop-color:#ffffff;stop-opacity:0.65934068;"
       offset="0"
       id="stop8411" /><stop
       style="stop-color:white;stop-opacity:0"
       offset="1"
       id="stop8413" /></linearGradient><linearGradient
     x1="200.5"
     y1="437.36218"
     x2="346.5"
     y2="583.36218"
     id="linearGradient11271"
     xlink:href="#linearGradient8409"
     gradientUnits="userSpaceOnUse"
     gradientTransform="matrix(1.1983179,0,0,1.2210734,-240.77243,-533.92347)" /><inkscape:perspective
     sodipodi:type="inkscape:persp3d"
     inkscape:vp_x="0 : 88.5 : 1"
     inkscape:vp_y="0 : 1000 : 0"
     inkscape:vp_z="174 : 88.5 : 1"
     inkscape:persp3d-origin="87 : 59 : 1"
     id="perspective9535" /><linearGradient
     inkscape:collect="always"
     xlink:href="#linearGradient8409"
     id="linearGradient10353"
     gradientUnits="userSpaceOnUse"
     gradientTransform="matrix(1.1962691,0.07004167,-0.07137174,1.2189858,-203.75422,-552.78065)"
     x1="200.5"
     y1="437.36218"
     x2="346.5"
     y2="583.36218" /><linearGradient
     inkscape:collect="always"
     xlink:href="#linearGradient3802"
     id="linearGradient3808"
     x1="358.50137"
     y1="173.90054"
     x2="187.10634"
     y2="5.2236762"
     gradientUnits="userSpaceOnUse" /><linearGradient
     inkscape:collect="always"
     xlink:href="#linearGradient3802"
     id="linearGradient3816"
     gradientUnits="userSpaceOnUse"
     x1="358.50137"
     y1="173.90054"
     x2="187.10634"
     y2="5.2236762" /><linearGradient
     inkscape:collect="always"
     xlink:href="#linearGradient3802"
     id="linearGradient3018"
     gradientUnits="userSpaceOnUse"
     x1="358.50137"
     y1="173.90054"
     x2="187.10634"
     y2="5.2236762" /></defs><sodipodi:namedview
   inkscape:window-height="716"
   inkscape:window-width="1366"
   inkscape:pageshadow="2"
   inkscape:pageopacity="0.0"
   guidetolerance="10.0"
   gridtolerance="10.0"
   objecttolerance="10.0"
   borderopacity="1.0"
   bordercolor="#666666"
   pagecolor="#ffffff"
   id="base"
   showgrid="false"
   inkscape:zoom="2.84"
   inkscape:cx="87.5"
   inkscape:cy="87.5"
   inkscape:window-x="-8"
   inkscape:window-y="-8"
   inkscape:current-layer="symbol"
   inkscape:window-maximized="1"
   fit-margin-top="0"
   fit-margin-left="0"
   fit-margin-right="0"
   fit-margin-bottom="0" />
	<g
   id="symbol"
   transform="translate(-186.97185,1.2052307)">
		 
		 
		
		
		 
		 
		 
		 
	<path
   sodipodi:type="arc"
   style="fill:url(#linearGradient3816);fill-opacity:1;stroke:none"
   id="path3015"
   sodipodi:cx="272.97888"
   sodipodi:cy="89.390343"
   sodipodi:rx="86.007042"
   sodipodi:ry="84.404427"
   d="m 358.98592,89.390343 a 86.007042,84.404427 0 1 1 -172.01408,0 86.007042,84.404427 0 1 1 172.01408,0 z"
   transform="matrix(1.0173586,0,0,1.0366755,-3.245561,-6.3740078)" /><path
   transform="matrix(0.81388684,0,0,0.82934036,52.297933,12.159751)"
   d="m 358.98592,89.390343 a 86.007042,84.404427 0 1 1 -172.01408,0 86.007042,84.404427 0 1 1 172.01408,0 z"
   sodipodi:ry="84.404427"
   sodipodi:rx="86.007042"
   sodipodi:cy="89.390343"
   sodipodi:cx="272.97888"
   id="path3796"
   style="fill:#fff2cd;fill-opacity:1;stroke:none"
   sodipodi:type="arc" /><g
   id="g3798"
   style="font-size:150px;font-style:normal;font-variant:normal;font-weight:normal;font-stretch:normal;text-align:center;line-height:100%;letter-spacing:0px;word-spacing:0px;writing-mode:lr-tb;text-anchor:middle;fill:#ff6600;fill-opacity:1;stroke:none;font-family:Standard Symbols L;-inkscape-font-specification:Standard Symbols L"
   transform="translate(187.47185,-2.205231)"><path
     id="path3800"
     d="m 51,72.825002 c 4.949995,-7.799993 7.500007,-9.45 14.7,-9.45 l 6.9,0 -3.9,33.3 c -0.599999,4.199998 -2.550005,7.500008 -7.65,12.149998 -4.649995,4.2 -6,6.6 -6,9.9 0,4.5 3.600005,8.25 8.25,8.25 4.649995,0 8.250002,-3.45 10.2,-9.9 1.349999,-3.89999 3.450001,-19.200014 4.8,-34.349998 l 1.8,-19.35 16.35,0 c -1.799998,11.849988 -3.15,28.050008 -3.15,36.6 0,16.799978 5.700009,26.999998 14.85,26.999998 5.84999,0 11.1,-4.05001 14.7,-11.1 2.1,-4.19999 2.7,-7.05001 3.15,-14.55 l -3.6,0 c -0.75,7.19999 -3.6,10.95 -8.55,10.95 -3,0 -6.15,-2.1 -7.8,-5.25 -1.35,-2.7 -1.8,-5.1 -1.8,-10.049998 0,-11.399989 0.75,-25.350009 1.8,-33.6 l 18.9,0 0,-13.35 -52.5,0 c -8.099992,0 -10.950004,1.050004 -15.3,5.25 -4.199996,4.199995 -6.600003,8.550009 -9.15,17.55 l 3,0"
     inkscape:connector-curvature="0" /></g></g>
</svg>